<svg width="24" height="24" viewBox="0 0 24 24" fill="none" xmlns="http://www.w3.org/2000/svg">
<path d="M13.9982 5.00006C14.2319 4.9996 14.4583 5.08098 14.6382 5.23006C14.7395 5.31401 14.8232 5.41711 14.8846 5.53346C14.9459 5.6498 14.9837 5.77711 14.9958 5.90809C15.0079 6.03906 14.994 6.17114 14.9549 6.29674C14.9159 6.42234 14.8524 6.53901 14.7682 6.64006L10.2882 12.0001L14.6082 17.3701C14.6913 17.4723 14.7533 17.59 14.7908 17.7164C14.8282 17.8427 14.8403 17.9752 14.8264 18.1062C14.8124 18.2373 14.7727 18.3643 14.7095 18.4799C14.6464 18.5955 14.561 18.6975 14.4582 18.7801C14.3548 18.8711 14.2336 18.9398 14.1023 18.9818C13.9711 19.0237 13.8326 19.0381 13.6955 19.0241C13.5584 19.01 13.4257 18.9677 13.3057 18.8999C13.1857 18.8321 13.081 18.7402 12.9982 18.6301L8.16824 12.6301C8.02116 12.4511 7.94075 12.2267 7.94075 11.9951C7.94075 11.7634 8.02116 11.539 8.16824 11.3601L13.1682 5.36006C13.2686 5.23904 13.396 5.14338 13.5402 5.08083C13.6844 5.01828 13.8413 4.99061 13.9982 5.00006Z" fill="#444444"/>
</svg>
