<svg width="24" height="24" viewBox="0 0 24 24" fill="none" xmlns="http://www.w3.org/2000/svg">
<path d="M17.5598 21C17.3998 21.0007 17.2421 20.9629 17.0998 20.89L11.9998 18.22L6.89976 20.89C6.73416 20.9771 6.54744 21.016 6.36084 21.0022C6.17424 20.9885 5.99524 20.9226 5.84419 20.8122C5.69314 20.7018 5.5761 20.5512 5.50638 20.3776C5.43665 20.204 5.41704 20.0142 5.44976 19.83L6.44976 14.2L2.32976 10.2C2.20122 10.0717 2.11003 9.91089 2.06599 9.73471C2.02195 9.55854 2.02671 9.3737 2.07976 9.20002C2.13772 9.0223 2.24434 8.86437 2.38751 8.74418C2.53069 8.62398 2.70469 8.54633 2.88976 8.52002L8.58976 7.69002L11.0998 2.56002C11.1816 2.39095 11.3095 2.24836 11.4687 2.14859C11.6278 2.04883 11.8119 1.99591 11.9998 1.99591C12.1876 1.99591 12.3717 2.04883 12.5309 2.14859C12.69 2.24836 12.8179 2.39095 12.8998 2.56002L15.4398 7.68002L21.1398 8.51002C21.3248 8.53633 21.4988 8.61398 21.642 8.73418C21.7852 8.85437 21.8918 9.0123 21.9498 9.19002C22.0028 9.3637 22.0076 9.54854 21.9635 9.72471C21.9195 9.90089 21.8283 10.0617 21.6998 10.19L17.5798 14.19L18.5798 19.82C18.6155 20.0075 18.5968 20.2013 18.5259 20.3785C18.455 20.5557 18.3349 20.7089 18.1798 20.82C17.9987 20.9469 17.7806 21.0102 17.5598 21Z" fill="#444444"/>
</svg>
