<?xml version="1.0" encoding="utf-8"?><svg xmlns="http://www.w3.org/2000/svg" xmlns:xlink="http://www.w3.org/1999/xlink"><symbol viewBox="0 0 24 24" id="attach" xmlns="http://www.w3.org/2000/svg"><path d="M9.29 21a6.232 6.232 0 01-4.43-1.88 6 6 0 01-.22-8.49L12 3.2A4.11 4.11 0 0115 2a4.48 4.48 0 013.19 1.35 4.36 4.36 0 01.15 6.13l-7.4 7.43a2.54 2.54 0 01-1.81.75 2.72 2.72 0 01-1.95-.82 2.68 2.68 0 01-.08-3.77l6.83-6.86a1 1 0 011.37 1.41l-6.83 6.86a.68.68 0 00.08.95.78.78 0 00.53.23.562.562 0 00.4-.16l7.39-7.43a2.36 2.36 0 00-.15-3.31 2.38 2.38 0 00-3.27-.15L6.06 12a4 4 0 00.22 5.67 4.22 4.22 0 003 1.29 3.67 3.67 0 002.61-1.06l7.39-7.43a.999.999 0 011.634.319 1.001 1.001 0 01-.213 1.091l-7.39 7.43A5.65 5.65 0 019.29 21z"/></symbol><symbol viewBox="0 0 24 24" id="btn-arrow-black" xmlns="http://www.w3.org/2000/svg"><path d="M5 13h11.86l-3.63 4.36a1 1 0 101.54 1.28l5-6c.034-.048.064-.098.09-.15 0-.05.05-.08.07-.13A1 1 0 0020 12a1 1 0 00-.07-.36c0-.05-.05-.08-.07-.13a1.198 1.198 0 00-.09-.15l-5-6a1 1 0 00-1.41-.13.999.999 0 00-.13 1.41L16.86 11H5a1 1 0 000 2z"/></symbol><symbol viewBox="0 0 24 24" id="btn-arrow-white" xmlns="http://www.w3.org/2000/svg"><path d="M5 13h11.86l-3.63 4.36a1 1 0 101.54 1.28l5-6c.034-.048.064-.098.09-.15 0-.05.05-.08.07-.13A1 1 0 0020 12a1 1 0 00-.07-.36c0-.05-.05-.08-.07-.13a1.198 1.198 0 00-.09-.15l-5-6a1 1 0 00-1.41-.13.999.999 0 00-.13 1.41L16.86 11H5a1 1 0 000 2z"/></symbol><symbol viewBox="0 0 24 24" id="burger" xmlns="http://www.w3.org/2000/svg"><path d="M4.209 13H19.79c.668 0 1.209-.42 1.209-.94v-.12c0-.52-.541-.94-1.209-.94H4.21c-.67 0-1.21.42-1.21.94v.12c0 .52.541.94 1.209.94zM3.94 8h16.12c.52 0 .94-.42.94-.94v-.12a.94.94 0 00-.94-.94H3.94a.94.94 0 00-.94.94v.12c0 .52.42.94.94.94zm0 10h16.12c.52 0 .94-.42.94-.94v-.12a.94.94 0 00-.94-.94H3.94a.94.94 0 00-.94.94v.12c0 .52.42.94.94.94z"/></symbol><symbol viewBox="0 0 24 24" id="cart" xmlns="http://www.w3.org/2000/svg"><path d="M21.08 7a2 2 0 00-1.7-1H6.58L6 3.74A1 1 0 005 3H3a1 1 0 100 2h1.24L7 15.26A1 1 0 008 16h9a1 1 0 00.89-.55l3.28-6.56A2 2 0 0021.08 7zm-4.7 7H8.76L7.13 8h12.25l-3 6zM7.5 21a1.5 1.5 0 100-3 1.5 1.5 0 000 3zm10 0a1.5 1.5 0 100-3 1.5 1.5 0 000 3z"/></symbol><symbol viewBox="0 0 24 24" id="drop" xmlns="http://www.w3.org/2000/svg"><path d="M5 10a1 1 0 011.64-.77L12 13.71l5.37-4.32a.998.998 0 011.41.15 1 1 0 01-.15 1.46l-6 4.83a1 1 0 01-1.27 0l-6-5A1 1 0 015 10z"/></symbol><symbol viewBox="0 0 15 15" id="drop-arrow" xmlns="http://www.w3.org/2000/svg"><path d="M3.125 6.251A.625.625 0 014.15 5.77l3.35 2.8 3.356-2.7a.625.625 0 01.881.094.626.626 0 01-.094.912l-3.75 3.019a.625.625 0 01-.793 0L3.35 6.77a.625.625 0 01-.225-.519z"/></symbol><symbol viewBox="0 0 24 24" id="favorite" xmlns="http://www.w3.org/2000/svg"><path d="M12 21a.998.998 0 01-.71-.29l-7.77-7.78a5.26 5.26 0 010-7.4 5.24 5.24 0 017.4 0L12 6.61l1.08-1.08a5.24 5.24 0 017.4 0 5.26 5.26 0 010 7.4l-7.77 7.78A1.001 1.001 0 0112 21zM7.22 6a3.2 3.2 0 00-2.28.94 3.24 3.24 0 000 4.57L12 18.58l7.06-7.07a3.24 3.24 0 000-4.57 3.32 3.32 0 00-4.56 0l-1.79 1.8a1 1 0 01-1.42 0L9.5 6.94A3.2 3.2 0 007.22 6z"/></symbol><symbol viewBox="0 0 24 24" id="phone" xmlns="http://www.w3.org/2000/svg"><path d="M17.4 22A15.42 15.42 0 012 6.6 4.6 4.6 0 016.6 2a3.94 3.94 0 01.77.07c.245.036.486.097.72.18a1 1 0 01.65.75l1.37 6a1 1 0 01-.26.92c-.13.14-.14.15-1.37.79a9.91 9.91 0 004.87 4.89c.65-1.24.66-1.25.8-1.38a1 1 0 01.92-.26l6 1.37a1.001 1.001 0 01.72.65 4.338 4.338 0 01.25 1.49A4.6 4.6 0 0117.4 22zM6.6 4A2.61 2.61 0 004 6.6 13.41 13.41 0 0017.4 20a2.61 2.61 0 002.6-2.6v-.33L15.36 16l-.29.55c-.45.87-.78 1.5-1.62 1.16a11.85 11.85 0 01-7.18-7.21c-.36-.78.32-1.14 1.18-1.59L8 8.64 6.93 4H6.6z"/></symbol><symbol viewBox="0 0 24 24" id="pin" xmlns="http://www.w3.org/2000/svg"><path d="M12 14c2.206 0 4-1.794 4-4s-1.794-4-4-4-4 1.794-4 4 1.794 4 4 4zm0-6c1.103 0 2 .897 2 2s-.897 2-2 2-2-.897-2-2 .897-2 2-2z"/><path d="M11.42 21.814a.998.998 0 001.16 0C12.884 21.599 20.03 16.44 20 10c0-4.411-3.589-8-8-8-4.41 0-8 3.589-8 7.995-.029 6.445 7.116 11.604 7.42 11.819zM12 4c3.31 0 6 2.691 6 6.005.021 4.438-4.388 8.423-6 9.73-1.61-1.308-6.02-5.294-6-9.735 0-3.309 2.691-6 6-6z"/></symbol><symbol viewBox="0 0 24 24" id="search" xmlns="http://www.w3.org/2000/svg"><path d="M20.71 19.29l-3.4-3.39A7.92 7.92 0 0019 11a8 8 0 10-8 8 7.92 7.92 0 004.9-1.69l3.39 3.4a1.002 1.002 0 001.639-.325 1 1 0 00-.219-1.095zM5 11a6 6 0 1112 0 6 6 0 01-12 0z"/></symbol><symbol viewBox="0 0 25 25" id="slider-arrow-left" xmlns="http://www.w3.org/2000/svg"><path d="M14.33 5.445a.994.994 0 01.885.538A1.014 1.014 0 0115.1 7.1l-4.476 5.405 4.316 5.415a1.011 1.011 0 01.101 1.12 1.013 1.013 0 01-.25.302.996.996 0 01-1.46-.151l-4.826-6.05a1.014 1.014 0 010-1.281l4.996-6.05a1 1 0 01.83-.364z"/></symbol><symbol viewBox="0 0 25 25" id="slider-arrow-right" xmlns="http://www.w3.org/2000/svg"><path d="M10.292 19.563a.994.994 0 01-.886-.538 1.015 1.015 0 01.117-1.116l4.476-5.405L9.682 7.09a1.012 1.012 0 01.15-1.422.997.997 0 011.152-.12c.12.068.225.16.307.271l4.826 6.05a1.014 1.014 0 010 1.281l-4.996 6.05a.999.999 0 01-.829.363z"/></symbol><symbol viewBox="0 0 24 24" id="user" xmlns="http://www.w3.org/2000/svg"><path d="M12 11a4 4 0 100-8 4 4 0 000 8zm0-6a2 2 0 110 4 2 2 0 010-4zm0 8a7 7 0 00-7 7 1 1 0 102 0 5 5 0 1110 0 1 1 0 002 0 7 7 0 00-7-7z"/></symbol><symbol viewBox="0 0 15 15" id="white-cart" xmlns="http://www.w3.org/2000/svg"><path d="M13.175 4.375a1.25 1.25 0 00-1.062-.625h-8L3.75 2.338a.625.625 0 00-.625-.463h-1.25a.625.625 0 100 1.25h.775l1.725 6.413A.625.625 0 005 10h5.625a.625.625 0 00.556-.343l2.05-4.1a1.25 1.25 0 00-.056-1.182zM10.238 8.75H5.475L4.456 5h7.657l-1.875 3.75zm-5.55 4.375a.937.937 0 100-1.875.937.937 0 000 1.875zm6.25 0a.938.938 0 100-1.875.938.938 0 000 1.875z"/></symbol></svg>