<svg width="24" height="24" viewBox="0 0 24 24" fill="none" xmlns="http://www.w3.org/2000/svg">
<path d="M5.00006 10C4.9996 9.76635 5.08098 9.53992 5.23006 9.36C5.31401 9.25875 5.41711 9.17504 5.53346 9.11369C5.6498 9.05234 5.77711 9.01454 5.90809 9.00247C6.03906 8.99039 6.17114 9.00427 6.29674 9.04332C6.42234 9.08236 6.53901 9.1458 6.64006 9.23L12.0001 13.71L17.3701 9.39001C17.4723 9.30694 17.59 9.24491 17.7164 9.20748C17.8427 9.17004 17.9752 9.15795 18.1062 9.17189C18.2373 9.18583 18.3643 9.22553 18.4799 9.2887C18.5955 9.35187 18.6975 9.43728 18.7801 9.54001C18.8711 9.64347 18.9398 9.76464 18.9818 9.8959C19.0237 10.0272 19.0381 10.1657 19.0241 10.3028C19.01 10.4399 18.9677 10.5726 18.8999 10.6926C18.8321 10.8125 18.7402 10.9172 18.6301 11L12.6301 15.83C12.4511 15.9771 12.2267 16.0575 11.9951 16.0575C11.7634 16.0575 11.539 15.9771 11.3601 15.83L5.36006 10.83C5.23904 10.7297 5.14338 10.6023 5.08083 10.458C5.01828 10.3138 4.99061 10.1569 5.00006 10Z" fill="#444444"/>
</svg>
