<svg width="15" height="15" viewBox="0 0 15 15" fill="none" xmlns="http://www.w3.org/2000/svg">
<path d="M3.12479 6.2511C3.12451 6.10507 3.17537 5.96354 3.26854 5.8511C3.32101 5.78781 3.38545 5.7355 3.45817 5.69715C3.53088 5.65881 3.61045 5.63519 3.69231 5.62764C3.77417 5.62009 3.85672 5.62877 3.93522 5.65317C4.01372 5.67757 4.08664 5.71722 4.14979 5.76985L7.49979 8.56985L10.856 5.86985C10.92 5.81793 10.9935 5.77916 11.0725 5.75577C11.1515 5.73237 11.2343 5.72482 11.3162 5.73353C11.398 5.74224 11.4774 5.76705 11.5497 5.80653C11.622 5.84602 11.6857 5.8994 11.7373 5.9636C11.7942 6.02827 11.8371 6.104 11.8634 6.18603C11.8896 6.26807 11.8986 6.35465 11.8898 6.44033C11.881 6.52602 11.8546 6.60896 11.8122 6.68395C11.7698 6.75893 11.7124 6.82435 11.6435 6.8761L7.89354 9.89485C7.78171 9.98678 7.64143 10.037 7.49667 10.037C7.3519 10.037 7.21163 9.98678 7.09979 9.89485L3.34979 6.76985C3.27416 6.70715 3.21437 6.62751 3.17527 6.53737C3.13618 6.44724 3.11889 6.34917 3.12479 6.2511Z" fill="#444444"/>
</svg>
