<svg width="24" height="24" viewBox="0 0 24 24" fill="none" xmlns="http://www.w3.org/2000/svg">
<path d="M9.29085 21C8.46467 20.996 7.64753 20.8277 6.887 20.505C6.12646 20.1822 5.43771 19.7114 4.86085 19.12C4.28832 18.5773 3.8284 17.9271 3.50743 17.2065C3.18646 16.486 3.01073 15.7092 2.99029 14.9206C2.96986 14.132 3.10512 13.3472 3.38835 12.6109C3.67157 11.8747 4.09719 11.2015 4.64085 10.63L12.0009 3.19997C12.3939 2.80765 12.8624 2.49905 13.378 2.2928C13.8936 2.08655 14.4457 1.98694 15.0009 1.99997C15.5956 2.002 16.1839 2.12241 16.7316 2.35419C17.2793 2.58597 17.7754 2.92448 18.1909 3.34997C19.0178 4.14621 19.4974 5.23649 19.5255 6.38415C19.5536 7.53181 19.1279 8.64424 18.3409 9.47997L10.9409 16.91C10.7038 17.1486 10.4218 17.3378 10.1111 17.4665C9.80036 17.5953 9.46718 17.661 9.13085 17.66C8.76753 17.6605 8.40779 17.5881 8.07287 17.4473C7.73795 17.3065 7.43464 17.1 7.18085 16.84C6.67358 16.3488 6.38062 15.6773 6.36564 14.9714C6.35066 14.2655 6.61487 13.5822 7.10085 13.07L13.9309 6.20997C14.1252 6.08088 14.3586 6.02382 14.5907 6.04869C14.8227 6.07355 15.0387 6.17878 15.2013 6.34613C15.3639 6.51349 15.4629 6.73244 15.4811 6.96508C15.4992 7.19772 15.4355 7.42939 15.3009 7.61997L8.47085 14.48C8.35696 14.6172 8.30152 14.7936 8.31649 14.9713C8.33145 15.149 8.41562 15.3137 8.55085 15.43C8.69156 15.5717 8.88126 15.654 9.08085 15.66C9.15479 15.661 9.2282 15.6474 9.29685 15.62C9.36551 15.5925 9.42804 15.5517 9.48085 15.5L16.8709 8.06997C17.2857 7.60915 17.5025 7.0036 17.4744 6.38422C17.4463 5.76484 17.1756 5.18138 16.7208 4.75997C16.2984 4.32141 15.724 4.06143 15.1157 4.03353C14.5075 4.00563 13.9116 4.21193 13.4509 4.60997L6.06085 12C5.7015 12.3859 5.42201 12.8392 5.23848 13.3336C5.05494 13.828 4.97099 14.3538 4.99143 14.8807C5.01188 15.4077 5.13633 15.9254 5.35762 16.4041C5.57891 16.8828 5.89267 17.313 6.28085 17.67C6.67013 18.0735 7.13592 18.3954 7.65101 18.6169C8.16611 18.8384 8.72018 18.955 9.28085 18.96C9.76427 18.9639 10.2437 18.8723 10.6916 18.6904C11.1395 18.5085 11.5471 18.2399 11.8909 17.9L19.2809 10.47C19.3734 10.3767 19.4835 10.3026 19.6047 10.2519C19.7259 10.2012 19.8559 10.1749 19.9873 10.1744C20.1187 10.174 20.2489 10.1994 20.3705 10.2492C20.4921 10.2991 20.6026 10.3724 20.6959 10.465C20.7891 10.5576 20.8632 10.6676 20.9139 10.7888C20.9646 10.91 20.9909 11.04 20.9914 11.1714C20.9919 11.3028 20.9665 11.433 20.9166 11.5546C20.8667 11.6762 20.7934 11.7867 20.7009 11.88L13.3109 19.31C12.7862 19.8439 12.1606 20.2683 11.4705 20.5584C10.7804 20.8486 10.0395 20.9986 9.29085 21Z" fill="#444444"/>
</svg>
