<svg width="25" height="25" viewBox="0 0 25 25" fill="none" xmlns="http://www.w3.org/2000/svg">
<path d="M14.3296 5.44532C14.5631 5.44486 14.7893 5.52691 14.9691 5.67725C15.0703 5.7619 15.1539 5.86587 15.2152 5.9832C15.2765 6.10052 15.3143 6.2289 15.3263 6.36097C15.3384 6.49305 15.3245 6.62623 15.2855 6.75289C15.2465 6.87955 15.1831 6.9972 15.099 7.0991L10.6225 12.5041L14.9391 17.9193C15.0221 18.0224 15.0841 18.1411 15.1215 18.2685C15.1589 18.3959 15.171 18.5295 15.1571 18.6616C15.1431 18.7938 15.1035 18.9218 15.0403 19.0384C14.9772 19.155 14.8919 19.2579 14.7892 19.3411C14.6858 19.4329 14.5648 19.5022 14.4336 19.5445C14.3025 19.5868 14.164 19.6014 14.0271 19.5872C13.8901 19.573 13.7575 19.5303 13.6376 19.462C13.5177 19.3936 13.4131 19.301 13.3304 19.1899L8.50414 13.1394C8.35717 12.959 8.27683 12.7327 8.27683 12.4991C8.27683 12.2655 8.35717 12.0392 8.50414 11.8588L13.5002 5.80834C13.6005 5.68631 13.7278 5.58984 13.8719 5.52676C14.016 5.46369 14.1728 5.43579 14.3296 5.44532Z" fill="white"/>
</svg>
