<svg width="25" height="25" viewBox="0 0 25 25" fill="none" xmlns="http://www.w3.org/2000/svg">
<path d="M10.292 19.563C10.0585 19.5634 9.83226 19.4814 9.65249 19.3311C9.55131 19.2464 9.46768 19.1424 9.40637 19.0251C9.34507 18.9078 9.3073 18.7794 9.29524 18.6473C9.28317 18.5152 9.29704 18.3821 9.33605 18.2554C9.37507 18.1287 9.43846 18.0111 9.52259 17.9092L13.9991 12.5042L9.68247 7.08904C9.59947 6.98589 9.53749 6.8672 9.50008 6.7398C9.46268 6.6124 9.4506 6.4788 9.46452 6.34667C9.47845 6.21454 9.51812 6.08649 9.58124 5.96988C9.64437 5.85327 9.72971 5.7504 9.83235 5.66719C9.93574 5.57539 10.0568 5.50614 10.188 5.4638C10.3191 5.42146 10.4575 5.40693 10.5945 5.42114C10.7315 5.43534 10.8641 5.47796 10.984 5.54634C11.1039 5.61471 11.2085 5.70735 11.2912 5.81845L16.1174 11.8689C16.2644 12.0493 16.3448 12.2756 16.3448 12.5092C16.3448 12.7428 16.2644 12.9691 16.1174 13.1495L11.1213 19.2C11.0211 19.322 10.8938 19.4185 10.7497 19.4815C10.6056 19.5446 10.4488 19.5725 10.292 19.563Z" fill="white"/>
</svg>
