<svg width="15" height="15" viewBox="0 0 15 15" fill="none" xmlns="http://www.w3.org/2000/svg">
<path d="M13.1751 4.37537C13.0671 4.18825 12.9124 4.03232 12.7262 3.92279C12.54 3.81325 12.3286 3.75384 12.1126 3.75037H4.11256L3.75006 2.33787C3.71344 2.20152 3.63172 2.08158 3.51823 1.9976C3.40474 1.91362 3.26616 1.87053 3.12506 1.87537H1.87506C1.7093 1.87537 1.55033 1.94121 1.43312 2.05842C1.31591 2.17564 1.25006 2.33461 1.25006 2.50037C1.25006 2.66613 1.31591 2.8251 1.43312 2.94231C1.55033 3.05952 1.7093 3.12537 1.87506 3.12537H2.65006L4.37506 9.53787C4.41169 9.67422 4.4934 9.79415 4.60689 9.87813C4.72038 9.96212 4.85896 10.0052 5.00006 10.0004H10.6251C10.7405 10 10.8535 9.96771 10.9517 9.90704C11.0499 9.84636 11.1294 9.75969 11.1813 9.65662L13.2313 5.55662C13.3202 5.37038 13.3615 5.16504 13.3517 4.95892C13.3419 4.7528 13.2812 4.55232 13.1751 4.37537ZM10.2376 8.75037H5.47506L4.45631 5.00037H12.1126L10.2376 8.75037Z" fill="white"/>
<path d="M4.68756 13.125C5.20533 13.125 5.62506 12.7053 5.62506 12.1875C5.62506 11.6697 5.20533 11.25 4.68756 11.25C4.16979 11.25 3.75006 11.6697 3.75006 12.1875C3.75006 12.7053 4.16979 13.125 4.68756 13.125Z" fill="white"/>
<path d="M10.9376 13.125C11.4553 13.125 11.8751 12.7053 11.8751 12.1875C11.8751 11.6697 11.4553 11.25 10.9376 11.25C10.4198 11.25 10.0001 11.6697 10.0001 12.1875C10.0001 12.7053 10.4198 13.125 10.9376 13.125Z" fill="white"/>
</svg>
