<svg width="15" height="15" viewBox="0 0 15 15" fill="none" xmlns="http://www.w3.org/2000/svg">
<path d="M3.12626 6.25012C3.12597 6.10409 3.17683 5.96257 3.27001 5.85012C3.32248 5.78684 3.38692 5.73452 3.45963 5.69618C3.53235 5.65783 3.61192 5.63421 3.69378 5.62666C3.77564 5.61912 3.85818 5.62779 3.93668 5.65219C4.01519 5.6766 4.0881 5.71625 4.15126 5.76887L7.50126 8.56887L10.8575 5.86887C10.9214 5.81696 10.995 5.77819 11.074 5.75479C11.1529 5.7314 11.2357 5.72384 11.3176 5.73255C11.3995 5.74126 11.4789 5.76607 11.5512 5.80556C11.6234 5.84504 11.6872 5.89842 11.7388 5.96262C11.7957 6.02729 11.8386 6.10302 11.8648 6.18506C11.8911 6.2671 11.9001 6.35367 11.8913 6.43936C11.8825 6.52504 11.856 6.60798 11.8137 6.68297C11.7713 6.75796 11.7139 6.82338 11.645 6.87512L7.89501 9.89387C7.78317 9.9858 7.6429 10.0361 7.49813 10.0361C7.35337 10.0361 7.21309 9.9858 7.10126 9.89387L3.35126 6.76887C3.27562 6.70618 3.21583 6.62653 3.17674 6.5364C3.13765 6.44627 3.12035 6.34819 3.12626 6.25012Z" fill="#444444"/>
</svg>
