<svg width="25" height="25" viewBox="0 0 25 25" fill="none" xmlns="http://www.w3.org/2000/svg">
<path d="M5.74367 10.2982C5.74866 10.0603 5.83541 9.83173 5.98887 9.65212C6.07528 9.55103 6.18046 9.46827 6.29838 9.40858C6.4163 9.34888 6.54464 9.31343 6.67606 9.30424C6.80748 9.29505 6.93939 9.31231 7.06424 9.35504C7.18908 9.39776 7.30441 9.4651 7.40362 9.55321L12.6657 14.2407L18.143 9.97047C18.2473 9.88834 18.3666 9.82799 18.494 9.79288C18.6213 9.75777 18.7543 9.7486 18.8851 9.76589C19.016 9.78319 19.1422 9.82661 19.2565 9.89366C19.3708 9.96071 19.471 10.0501 19.5512 10.1566C19.6399 10.2641 19.7058 10.389 19.7448 10.5237C19.7838 10.6583 19.795 10.7996 19.7777 10.9389C19.7604 11.0781 19.715 11.2122 19.6443 11.3327C19.5736 11.4532 19.4792 11.5576 19.367 11.6393L13.247 16.4138C13.0644 16.5592 12.8378 16.6358 12.6059 16.6303C12.374 16.6248 12.1512 16.5376 11.9755 16.3836L6.08475 11.1516C5.96593 11.0466 5.87312 10.9146 5.81386 10.7663C5.75459 10.6181 5.73055 10.4577 5.74367 10.2982Z" fill="#444444"/>
</svg>
