<svg width="26" height="24" viewBox="0 0 26 24" fill="none" xmlns="http://www.w3.org/2000/svg">
<path d="M5.41732 13L18.2657 13L14.3331 17.36C14.2421 17.4611 14.1735 17.5778 14.1313 17.7034C14.0891 17.829 14.0741 17.961 14.0872 18.0919C14.1136 18.3564 14.2527 18.6003 14.474 18.77C14.6952 18.9397 14.9804 19.0214 15.2669 18.997C15.5534 18.9726 15.8176 18.8442 16.0015 18.64L21.4181 12.64C21.4546 12.5923 21.4872 12.5421 21.5156 12.49C21.5156 12.44 21.5698 12.41 21.5915 12.36C21.6406 12.2453 21.6663 12.1233 21.6673 12C21.6663 11.8767 21.6406 11.7547 21.5915 11.64C21.5915 11.59 21.5373 11.56 21.5156 11.51C21.4872 11.4579 21.4546 11.4077 21.4181 11.36L16.0015 5.36C15.8996 5.24712 15.7721 5.15634 15.6279 5.09412C15.4837 5.0319 15.3265 4.99976 15.1673 5C14.9142 4.99955 14.6689 5.08092 14.474 5.23C14.3643 5.31395 14.2736 5.41705 14.2071 5.5334C14.1407 5.64975 14.0997 5.77705 14.0867 5.90803C14.0736 6.03901 14.0886 6.17108 14.1309 6.29668C14.1732 6.42229 14.2419 6.53895 14.3331 6.64L18.2657 11L5.41732 11C5.13 11 4.85445 11.1054 4.65129 11.2929C4.44812 11.4804 4.33398 11.7348 4.33398 12C4.33398 12.2652 4.44812 12.5196 4.65129 12.7071C4.85445 12.8946 5.13 13 5.41732 13Z" fill="#444444"/>
</svg>
